<svg xmlns="http://www.w3.org/2000/svg" width="30" height="30" fill="none"><rect width="12.857" height="4.286" x="8.572" y="21.428" fill="#CD3131" rx="2.143"/><path stroke="#173EA5" stroke-linecap="round" stroke-linejoin="round" stroke-width="1.5" d="M22.955 7.045c4.393 4.393 4.393 11.517 0 15.91-4.393 4.393-11.517 4.393-15.91 0-4.393-4.393-4.393-11.517 0-15.91 4.393-4.393 11.517-4.393 15.91 0"/><path fill="#173EA5" fill-rule="evenodd" d="M17.487 10.405a3.516 3.516 0 1 1-4.973 4.973 3.516 3.516 0 0 1 4.973-4.973Z" clip-rule="evenodd"/><path stroke="#173EA5" stroke-linecap="round" stroke-linejoin="round" stroke-width="1.5" d="M17.487 10.405a3.516 3.516 0 1 1-4.973 4.973 3.516 3.516 0 0 1 4.973-4.973M22.5 23.699c-1.794-1.889-4.69-3.074-7.5-3.074a9.806 9.806 0 0 0-7.134 3.074"/></svg>