<svg xmlns="http://www.w3.org/2000/svg" width="96" height="96" fill="none"><path fill="#fff" d="M13 25C4 17 4 15 3 11h20c0 5-5 11-10 14Z"/><path fill="#CD3131" d="M23 11H3C3 8 5 2 13 1c7 0 10 7 10 10Z"/><circle cx="13" cy="10.8" r="3.3" fill="#fff"/><path stroke="#173EA5" stroke-linecap="round" stroke-linejoin="round" stroke-width="1.5" d="M23 11c0 7-10 14-10 14S3 18 3 11a10 10 0 1 1 20 0Z"/><path fill="#fff" stroke="#173EA5" stroke-linecap="round" stroke-linejoin="round" stroke-width="1.6" d="M13 14a3 3 0 1 0 0-6 3 3 0 0 0 0 6Z"/><path stroke="#173EA5" stroke-width="1.6" d="M3 11h7m6 0h7"/></svg>