<svg xmlns="http://www.w3.org/2000/svg" width="96" height="96" fill="none"><path fill="#fff" d="M2.2 13a10.8 10.8 0 1 0 21.6 0H2.2Z"/><path fill="#CD3131" d="M23.8 13a10.8 10.8 0 0 0-21.6 0h21.6Z"/><circle cx="13" cy="13" r="3.3" fill="#fff"/><path stroke="#173EA5" stroke-linecap="round" stroke-linejoin="round" stroke-width="1.5" d="M13 23.8a10.8 10.8 0 1 0 0-21.6 10.8 10.8 0 0 0 0 21.6Z"/><path stroke="#173EA5" stroke-linecap="round" stroke-linejoin="round" stroke-width="1.5" d="M13 16.3a3.3 3.3 0 1 0 0-6.6 3.3 3.3 0 0 0 0 6.6v0Z"/><path stroke="#173EA5" stroke-width="1.5" d="M2.2 13h7.5m6.6 0h7.5"/></svg>